<?xml version="1.0" encoding="UTF-8"?><svg id="b" xmlns="http://www.w3.org/2000/svg" viewBox="0 0 309.33 48.07"><defs><style>.d,.e{stroke-width:0px;}.e{fill:#ff5a00;}.d{fill:#fff}</style></defs><g id="c"><path class="e" d="m130.9,36.8c4.1,0,7.9-1.8,10.4-5.1,1.7-2.3,2.5-5.2,2.5-8s-.8-5.7-2.5-8c-2.4-3.3-6.3-5.1-10.4-5.1s-7.9,1.8-10.4,5.1c-1.7,2.3-2.5,5.2-2.5,8s.8,5.7,2.5,8c2.4,3.4,6.3,5.1,10.4,5.1m-6.3-16.1c.9-2.8,3.2-5.1,6.3-5.1s5.3,2.3,6.3,5.1c.3.9.5,2,.5,3s-.2,2.1-.5,3c-.9,2.8-3.2,5.1-6.3,5.1s-5.3-2.3-6.3-5.1c-.3-.9-.5-2-.5-3s.2-2.1.5-3"/><path class="e" d="m37.6,36.9h4.3c.4,0,.7-.3.7-.7V.7c0-.4-.3-.7-.7-.7h-4.3c-.4,0-.7.3-.7.7v35.4c0,.5.3.8.7.8"/><path class="e" d="m27.5,36.9h4.3c.4,0,.7-.3.7-.7V.7c0-.4-.3-.7-.7-.7h-4.3c-.4,0-.7.3-.7.7v35.4c-.1.5.3.8.7.8"/><path class="e" d="m103.1,36.9h4.3c.4,0,.7-.3.7-.7v-14.5c0-4.5,3-6.7,7.9-5.7.6.1,1-.2,1-.9v-3c0-.8-.1-1.1-.6-1.2-.8-.2-2.5-.3-3-.3-3.1,0-6,1.3-7.9,3.2-1.4,1.4-3.2,3.6-3.2,7.5v14.8c.1.5.4.8.8.8"/><path class="e" d="m85.8,36.8c2.7,0,5.2-.8,7.4-2.2v3.2c0,4.3-3.8,5.1-6.2,5.2-1.6.1-3.9-.1-4.9-.3-.7-.1-1.1,0-1.1.7v3.8c0,.3.2.6.7.6,5.6.5,9.3.4,12.2-1.2,2-1.1,3.4-3,4.1-5.2.5-1.6.7-3.5.7-5.2v-12.5c0-2.9-.8-5.7-2.5-8-2.4-3.3-6.3-5.1-10.4-5.1s-7.9,1.8-10.4,5.1c-3.3,4.5-3.3,11.5,0,16,2.4,3.4,6.3,5.1,10.4,5.1m-6.3-16.1c.9-2.8,3.2-5.1,6.3-5.1,6.9,0,7.2,7.1,7.2,8.1s-.2,8.1-7.2,8.1c-3.1,0-5.3-2.3-6.3-5.1-.3-.9-.5-2-.5-3s.2-2.1.5-3"/><path class="e" d="m58.8,36.8c4.1.2,6.9-.6,9-1.8.4-.2.5-.5.5-1.3v-3.3c0-.7-.4-1-1-.6-2.2,1.4-4.9,2.3-8.3,2-3.4-.3-6.3-2.7-6.6-6.1h17c.4,0,.7-.3.7-.7.3-4.7-1.1-14.5-11.5-14.5-7.7,0-11,5.1-12.1,9.5-.3,1.2-.4,2.4-.4,3.6,0,2.8.8,5.7,2.5,8,2.3,3.5,6.2,5.1,10.2,5.2m-.3-21.1c2.5,0,5.5,1.4,5.5,5.5h-11.6c0-1.9,1.6-5.5,6.1-5.5"/><path class="e" d="m2.7,35c1.6,1.3,3.9,1.9,6.7,1.9h12.7c.4,0,.7-.3.7-.7v-15c0-3.4-.8-6.1-2.4-7.8-1.7-1.8-5-2.7-8-2.7s-6.2.8-8.8,2.3c-.2.1-.3.3-.3.5l.2,3.8c0,.5.6.7,1.1.4,3.8-2.3,8.3-2.8,10.6-1.6,1.6.8,2,2.5,2,3.6v.6h-6.2c-2.7,0-11,1-11,8.6,0,2.6.9,4.7,2.7,6.1m8.6-10.2h5.9v7.4h-7.5c-1-.1-1.9-.3-2.7-.9-.9-.7-1.2-1.4-1.3-2.5.1-1.3,1.1-4,5.6-4"/><path class="d" d="m167.51,35.83h-1.76V12.48h-8.12v-1.64h18v1.64h-8.12v23.34Z"/><path class="d" d="m186.41,36.17c-2.7,0-4.81-.83-6.32-2.5-1.51-1.66-2.26-3.99-2.26-6.99s.73-5.33,2.19-7.12c1.46-1.78,3.42-2.67,5.9-2.67,2.19,0,3.91.76,5.18,2.29,1.27,1.53,1.9,3.6,1.9,6.22v1.37h-13.38c.02,2.55.62,4.5,1.79,5.84,1.17,1.34,2.84,2.02,5.02,2.02,1.06,0,1.99-.07,2.79-.22.8-.15,1.82-.47,3.05-.96v1.54c-1.05.46-2.02.77-2.9.93s-1.87.25-2.94.25Zm-.5-17.77c-1.79,0-3.22.59-4.31,1.77-1.08,1.18-1.71,2.88-1.9,5.1h11.48c0-2.15-.47-3.84-1.4-5.05-.93-1.21-2.23-1.82-3.88-1.82Z"/><path class="d" d="m205.53,36.17c-2.66,0-4.73-.84-6.24-2.51-1.5-1.68-2.26-4.01-2.26-7.01s.78-5.47,2.34-7.19c1.56-1.71,3.7-2.57,6.41-2.57,1.61,0,3.14.28,4.62.84l-.46,1.5c-1.61-.54-3-.8-4.19-.8-2.28,0-4.01.7-5.18,2.11-1.17,1.41-1.76,3.43-1.76,6.08,0,2.51.59,4.47,1.76,5.89,1.17,1.42,2.81,2.13,4.92,2.13,1.69,0,3.25-.3,4.7-.91v1.57c-1.19.58-2.74.87-4.67.87Z"/><path class="d" d="m227.7,35.83v-12.05c0-1.87-.39-3.23-1.18-4.08-.79-.85-2-1.27-3.66-1.27-2.22,0-3.85.56-4.88,1.68s-1.55,2.94-1.55,5.46v10.25h-1.69V9.23h1.69v8.46l-.09,2.38h.12c.7-1.12,1.57-1.93,2.63-2.43,1.06-.5,2.38-.75,3.95-.75,4.21,0,6.32,2.26,6.32,6.78v12.15h-1.67Z"/><path class="d" d="m244.91,10.84h6.85c3.09,0,5.35.52,6.8,1.57,1.45,1.05,2.17,2.63,2.17,4.75,0,1.45-.44,2.65-1.33,3.61-.88.96-2.17,1.58-3.87,1.85v.1c1.99.3,3.46.93,4.4,1.89.94.96,1.41,2.3,1.41,4.02,0,2.3-.76,4.07-2.29,5.31-1.53,1.24-3.69,1.86-6.49,1.86h-7.66V10.84Zm1.74,11.13h5.5c2.35,0,4.05-.39,5.12-1.17,1.06-.78,1.6-2,1.6-3.67s-.6-2.87-1.8-3.62c-1.2-.75-2.99-1.13-5.38-1.13h-5.04v9.59Zm0,1.54v10.78h5.88c4.62,0,6.94-1.88,6.94-5.64,0-3.43-2.44-5.14-7.31-5.14h-5.5Z"/><path class="d" d="m268.12,35.83h-1.69V9.23h1.69v26.59Z"/><path class="d" d="m289.7,26.51c0,3.03-.74,5.4-2.21,7.1s-3.5,2.55-6.08,2.55c-1.63,0-3.07-.39-4.31-1.18-1.24-.79-2.19-1.91-2.85-3.38-.66-1.47-.99-3.17-.99-5.09,0-3.03.74-5.39,2.21-7.08,1.47-1.69,3.49-2.54,6.05-2.54s4.55.86,6.01,2.57c1.45,1.71,2.18,4.06,2.18,7.05Zm-14.66,0c0,2.55.56,4.54,1.68,5.97s2.71,2.14,4.76,2.14,3.64-.71,4.76-2.14c1.12-1.43,1.68-3.42,1.68-5.97s-.57-4.55-1.7-5.96c-1.13-1.41-2.73-2.12-4.78-2.12s-3.63.7-4.74,2.11c-1.11,1.41-1.67,3.4-1.67,5.97Z"/><path class="d" d="m309.33,17.25v1.18l-3.84.24c1.03,1.28,1.54,2.68,1.54,4.2,0,1.79-.59,3.24-1.79,4.35-1.19,1.11-2.79,1.67-4.79,1.67-.84,0-1.44-.03-1.78-.1-.67.35-1.19.77-1.54,1.25-.35.48-.53.99-.53,1.52,0,.59.22,1.03.67,1.3.45.27,1.2.41,2.26.41h3.25c2.02,0,3.56.41,4.63,1.22,1.07.82,1.61,2.02,1.61,3.62,0,1.96-.79,3.47-2.38,4.54-1.59,1.06-3.85,1.6-6.79,1.6-2.33,0-4.14-.45-5.43-1.35-1.28-.9-1.92-2.15-1.92-3.76,0-1.28.4-2.34,1.19-3.18.79-.84,1.87-1.42,3.22-1.73-.56-.24-1-.58-1.34-1.02-.34-.44-.5-.94-.5-1.51,0-1.24.79-2.33,2.38-3.28-1.08-.44-1.93-1.14-2.53-2.09-.6-.95-.91-2.04-.91-3.27,0-1.86.59-3.35,1.77-4.47,1.18-1.12,2.77-1.68,4.78-1.68,1.22,0,2.16.12,2.84.36h5.95Zm-15.04,21.72c0,2.55,1.9,3.83,5.69,3.83,4.88,0,7.31-1.55,7.31-4.67,0-1.12-.38-1.92-1.14-2.43-.76-.5-2-.75-3.71-.75h-3.04c-3.41,0-5.11,1.34-5.11,4.02Zm1.42-15.93c0,1.44.44,2.55,1.31,3.34.87.79,2.04,1.19,3.5,1.19,1.55,0,2.74-.39,3.56-1.18.83-.79,1.24-1.93,1.24-3.42,0-1.58-.42-2.77-1.27-3.56-.85-.79-2.04-1.19-3.56-1.19s-2.65.42-3.5,1.27-1.27,2.03-1.27,3.55Z"/></g></svg>
