<svg version="1.1" id="Layer_1" xmlns="http://www.w3.org/2000/svg" x="0" y="0" viewBox="0 0 316 48.1" xml:space="preserve">
  <style>
    .st0{fill:#ff5a00}
	.st1{fill:#000}
	@media (prefers-color-scheme: dark) {
		.st1{fill:#fff}	
	}
  </style>
  <path class="st0" d="M130.9 36.8c4.1 0 7.9-1.8 10.4-5.1 1.7-2.3 2.5-5.2 2.5-8s-.8-5.7-2.5-8c-2.4-3.3-6.3-5.1-10.4-5.1-4.1 0-7.9 1.8-10.4 5.1-1.7 2.3-2.5 5.2-2.5 8s.8 5.7 2.5 8c2.4 3.4 6.3 5.1 10.4 5.1m-6.3-16.1c.9-2.8 3.2-5.1 6.3-5.1 3.1 0 5.3 2.3 6.3 5.1.3.9.5 2 .5 3s-.2 2.1-.5 3c-.9 2.8-3.2 5.1-6.3 5.1-3.1 0-5.3-2.3-6.3-5.1-.3-.9-.5-2-.5-3s.2-2.1.5-3M37.6 36.9h4.3c.4 0 .7-.3.7-.7V.7c0-.4-.3-.7-.7-.7h-4.3c-.4 0-.7.3-.7.7v35.4c0 .5.3.8.7.8M27.5 36.9h4.3c.4 0 .7-.3.7-.7V.7c0-.4-.3-.7-.7-.7h-4.3c-.4 0-.7.3-.7.7v35.4c-.1.5.3.8.7.8M103.1 36.9h4.3c.4 0 .7-.3.7-.7V21.7c0-4.5 3-6.7 7.9-5.7.6.1 1-.2 1-.9v-3c0-.8-.1-1.1-.6-1.2-.8-.2-2.5-.3-3-.3-3.1 0-6 1.3-7.9 3.2-1.4 1.4-3.2 3.6-3.2 7.5v14.8c.1.5.4.8.8.8M85.8 36.8c2.7 0 5.2-.8 7.4-2.2v3.2c0 4.3-3.8 5.1-6.2 5.2-1.6.1-3.9-.1-4.9-.3-.7-.1-1.1 0-1.1.7v3.8c0 .3.2.6.7.6 5.6.5 9.3.4 12.2-1.2 2-1.1 3.4-3 4.1-5.2.5-1.6.7-3.5.7-5.2V23.7c0-2.9-.8-5.7-2.5-8-2.4-3.3-6.3-5.1-10.4-5.1s-7.9 1.8-10.4 5.1c-3.3 4.5-3.3 11.5 0 16 2.4 3.4 6.3 5.1 10.4 5.1m-6.3-16.1c.9-2.8 3.2-5.1 6.3-5.1 6.9 0 7.2 7.1 7.2 8.1s-.2 8.1-7.2 8.1c-3.1 0-5.3-2.3-6.3-5.1-.3-.9-.5-2-.5-3s.2-2.1.5-3M58.8 36.8c4.1.2 6.9-.6 9-1.8.4-.2.5-.5.5-1.3v-3.3c0-.7-.4-1-1-.6-2.2 1.4-4.9 2.3-8.3 2-3.4-.3-6.3-2.7-6.6-6.1h17c.4 0 .7-.3.7-.7.3-4.7-1.1-14.5-11.5-14.5-7.7 0-11 5.1-12.1 9.5-.3 1.2-.4 2.4-.4 3.6 0 2.8.8 5.7 2.5 8 2.3 3.5 6.2 5.1 10.2 5.2m-.3-21.1c2.5 0 5.5 1.4 5.5 5.5H52.4c0-1.9 1.6-5.5 6.1-5.5M2.7 35c1.6 1.3 3.9 1.9 6.7 1.9h12.7c.4 0 .7-.3.7-.7v-15c0-3.4-.8-6.1-2.4-7.8-1.7-1.8-5-2.7-8-2.7s-6.2.8-8.8 2.3c-.2.1-.3.3-.3.5l.2 3.8c0 .5.6.7 1.1.4 3.8-2.3 8.3-2.8 10.6-1.6 1.6.8 2 2.5 2 3.6v.6H11c-2.7 0-11 1-11 8.6 0 2.6.9 4.7 2.7 6.1m8.6-10.2h5.9v7.4H9.7c-1-.1-1.9-.3-2.7-.9-.9-.7-1.2-1.4-1.3-2.5.1-1.3 1.1-4 5.6-4"/>
  <g>
    <path class="st1" d="M167.9 36.1h-1.8V12.5h-8.2v-1.7h18.2v1.7h-8.2v23.6zM187 36.4c-2.7 0-4.9-.8-6.4-2.5s-2.3-4-2.3-7.1c0-3 .7-5.4 2.2-7.2 1.5-1.8 3.5-2.7 6-2.7 2.2 0 4 .8 5.2 2.3 1.3 1.5 1.9 3.6 1.9 6.3v1.4h-13.5c0 2.6.6 4.6 1.8 5.9 1.2 1.4 2.9 2 5.1 2 1.1 0 2-.1 2.8-.2.8-.2 1.8-.5 3.1-1v1.6c-1.1.5-2 .8-2.9.9s-1.9.3-3 .3zm-.5-17.9c-1.8 0-3.3.6-4.4 1.8-1.1 1.2-1.7 2.9-1.9 5.2h11.6c0-2.2-.5-3.9-1.4-5.1-.9-1.3-2.2-1.9-3.9-1.9zM206.3 36.4c-2.7 0-4.8-.8-6.3-2.5s-2.3-4.1-2.3-7.1c0-3.1.8-5.5 2.4-7.3 1.6-1.7 3.7-2.6 6.5-2.6 1.6 0 3.2.3 4.7.8l-.5 1.5c-1.6-.5-3-.8-4.2-.8-2.3 0-4.1.7-5.2 2.1-1.2 1.4-1.8 3.5-1.8 6.1 0 2.5.6 4.5 1.8 6s2.8 2.2 5 2.2c1.7 0 3.3-.3 4.8-.9v1.6c-1.3.6-2.9.9-4.9.9zM228.8 36.1V23.9c0-1.9-.4-3.3-1.2-4.1s-2-1.3-3.7-1.3c-2.2 0-3.9.6-4.9 1.7-1 1.1-1.6 3-1.6 5.5v10.4h-1.7V9.2h1.7v8.6l-.1 2.4h.1c.7-1.1 1.6-1.9 2.7-2.5 1.1-.5 2.4-.8 4-.8 4.3 0 6.4 2.3 6.4 6.9v12.3h-1.7zM246.2 10.8h6.9c3.1 0 5.4.5 6.9 1.6s2.2 2.7 2.2 4.8c0 1.5-.4 2.7-1.3 3.7s-2.2 1.6-3.9 1.9v.1c2 .3 3.5.9 4.5 1.9 1 1 1.4 2.3 1.4 4.1 0 2.3-.8 4.1-2.3 5.4-1.5 1.3-3.7 1.9-6.6 1.9h-7.7V10.8zm1.7 11.3h5.6c2.4 0 4.1-.4 5.2-1.2 1.1-.8 1.6-2 1.6-3.7 0-1.7-.6-2.9-1.8-3.7-1.2-.8-3-1.1-5.4-1.1H248v9.7zm0 1.5v10.9h5.9c4.7 0 7-1.9 7-5.7 0-3.5-2.5-5.2-7.4-5.2h-5.5zM269.6 36.1h-1.7V9.2h1.7v26.9zM291.5 26.7c0 3.1-.7 5.5-2.2 7.2-1.5 1.7-3.5 2.6-6.2 2.6-1.6 0-3.1-.4-4.4-1.2-1.3-.8-2.2-1.9-2.9-3.4-.7-1.5-1-3.2-1-5.2 0-3.1.7-5.5 2.2-7.2 1.5-1.7 3.5-2.6 6.1-2.6 2.6 0 4.6.9 6.1 2.6 1.5 1.8 2.3 4.2 2.3 7.2zm-14.9 0c0 2.6.6 4.6 1.7 6 1.1 1.4 2.7 2.2 4.8 2.2 2.1 0 3.7-.7 4.8-2.2 1.1-1.4 1.7-3.5 1.7-6 0-2.6-.6-4.6-1.7-6s-2.8-2.1-4.8-2.1-3.7.7-4.8 2.1c-1.1 1.4-1.7 3.4-1.7 6zM311.3 17.3v1.2l-3.9.2c1 1.3 1.6 2.7 1.6 4.3 0 1.8-.6 3.3-1.8 4.4-1.2 1.1-2.8 1.7-4.8 1.7-.9 0-1.5 0-1.8-.1-.7.4-1.2.8-1.6 1.3-.4.5-.5 1-.5 1.5 0 .6.2 1 .7 1.3.5.3 1.2.4 2.3.4h3.3c2 0 3.6.4 4.7 1.2 1.1.8 1.6 2 1.6 3.7 0 2-.8 3.5-2.4 4.6-1.6 1.1-3.9 1.6-6.9 1.6-2.4 0-4.2-.5-5.5-1.4-1.3-.9-1.9-2.2-1.9-3.8 0-1.3.4-2.4 1.2-3.2s1.9-1.4 3.3-1.7c-.6-.2-1-.6-1.4-1-.3-.4-.5-1-.5-1.5 0-1.3.8-2.4 2.4-3.3-1.1-.4-1.9-1.2-2.6-2.1-.6-1-.9-2.1-.9-3.3 0-1.9.6-3.4 1.8-4.5 1.2-1.1 2.8-1.7 4.8-1.7 1.2 0 2.2.1 2.9.4h5.9zm-15.2 22c0 2.6 1.9 3.9 5.8 3.9 4.9 0 7.4-1.6 7.4-4.7 0-1.1-.4-1.9-1.2-2.5-.8-.5-2-.8-3.8-.8h-3.1c-3.4 0-5.1 1.4-5.1 4.1zm1.5-16.1c0 1.5.4 2.6 1.3 3.4.9.8 2.1 1.2 3.5 1.2 1.6 0 2.8-.4 3.6-1.2.8-.8 1.3-1.9 1.3-3.5s-.4-2.8-1.3-3.6c-.9-.8-2.1-1.2-3.6-1.2s-2.7.4-3.5 1.3c-.9.8-1.3 2-1.3 3.6z"/>
  </g>
</svg>
